<svg xmlns="http://www.w3.org/2000/svg" viewBox="0 0 472.45 394.08"><defs><style>.cls-1{fill:#f9a826;}.cls-2{fill:#d0cde1;}.cls-3{fill:#a0616a;}.cls-4{fill:#2f2e41;}.cls-5{opacity:0.15;isolation:isolate;}.cls-6{fill:#3f3d56;}</style></defs><title>Asset 1</title><g id="Layer_2" data-name="Layer 2"><g id="Layer_1-2" data-name="Layer 1"><path class="cls-1" d="M435.69,167.54l-114.09-2,106.55,12.82c-24.78,30.3-70.84,46.88-112.47,73.75C192.8,331.42,179.49,204.36,185,126.07a139.76,139.76,0,0,1,34.09-82.69l124.39-15L232.4,30.34A127.06,127.06,0,0,1,315.68,0c55.63,0,103.14,33.56,122,80.84L261.44,70.43,442,93.85a122.35,122.35,0,0,1,4.31,32.22C446.32,142.47,442.43,156,435.69,167.54Z"/><path class="cls-1" d="M197.29,33.58c0,.33,0,.64,0,1a13.08,13.08,0,1,1,0-2A9.29,9.29,0,0,1,197.29,33.58Z"/><path class="cls-2" d="M197.29,33.58c0,.33,0,.64,0,1L177.7,32.18l19.54.34A9.29,9.29,0,0,1,197.29,33.58Z"/><path class="cls-2" d="M192.63,40.16l-18.09,2.18a13.8,13.8,0,0,1-1.38-1.84Z"/><path class="cls-2" d="M187.5,25.71l-14.82,1.78a13,13,0,0,1,1-1.55Z"/><path class="cls-1" d="M376.25,268.69c-.15.29-.31.56-.48.83a13.06,13.06,0,1,1-18.39-17.75,12.83,12.83,0,0,1,1.57-.91,13.05,13.05,0,0,1,17.76,16.87A10.59,10.59,0,0,1,376.25,268.69Z"/><path class="cls-2" d="M376.25,268.69c-.15.29-.31.56-.48.83l-16.16-11.24,17.1,9.45A10.59,10.59,0,0,1,376.25,268.69Z"/><path class="cls-2" d="M369.05,272.32l-17-6.55a13.51,13.51,0,0,1-.35-2.28Z"/><path class="cls-2" d="M371.29,257.14l-13.91-5.37a12.83,12.83,0,0,1,1.57-.91Z"/><path class="cls-1" d="M468.74,43.59c.22.23.44.46.64.7A13.06,13.06,0,1,1,446.87,56.4a10.76,10.76,0,0,1-.39-1.77A13,13,0,0,1,468,42.86C468.23,43.09,468.49,43.33,468.74,43.59Z"/><path class="cls-2" d="M468.74,43.59c.22.23.44.46.64.7l-15.64,12L468,42.86C468.23,43.09,468.49,43.33,468.74,43.59Z"/><path class="cls-2" d="M470,51.55,458.57,65.74a13.51,13.51,0,0,1-2.28-.35Z"/><path class="cls-2" d="M456.23,44.79,446.87,56.4a10.76,10.76,0,0,1-.39-1.77Z"/><path class="cls-3" d="M223.76,284.24s28.65,1.19,28.65,8.35-32.24,0-32.24,0Z"/><path class="cls-4" d="M180.77,394.08,127,390.5l-2.39-28.65-11.94,25.07-52.53-7.16c1.19-45.38,20.29-89.55,21.49-95.52s4-30.64,4-30.64c5.21-11.07,32.56-12.11,54-11.11,8.88.41,16.76,1.17,21.62,1.72,3.21.36,5.11.62,5.11.62,8.56,8.83,14.08,20.85,17.47,34.28C196.14,327.51,180.77,394.08,180.77,394.08Z"/><circle class="cls-3" cx="121.07" cy="87.22" r="29.85"/><path class="cls-3" d="M100.77,94.39s-8.36,37-21.49,47.76,51.34,0,51.34,0-14.33-23.88-3.58-34.63S100.77,94.39,100.77,94.39Z"/><path class="cls-2" d="M161.67,247.22l-19.81,2.2-55.42,6.16-.72-2c-4-11-23.41-64.37-25.54-80.41-2.39-17.91,22.68-39.4,22.68-39.4S106.74,129,113.91,129s35.82,10.75,35.82,10.75l10.68,96.13.92,8.32Z"/><path class="cls-5" d="M183.91,279.11l-40.15-23.53s-.71-2.29-1.9-6.16l-2.15-6.93c-4.63-14.88-12.41-39.42-18.64-57.36-9.55-27.46,37,49,37,49l2.33,1.8.92,8.32c3.21.36,5.11.62,5.11.62C175,253.66,180.52,265.68,183.91,279.11Z"/><path class="cls-2" d="M130.62,142.15s-11.94,15.52-2.39,43,22.69,70.45,22.69,70.45l69.25,40.6,9.56-11.94-64.48-50.15s-2.39-90.75-14.33-94.33S130.62,142.15,130.62,142.15Z"/><path class="cls-3" d="M71.52,246.62s16.71,34.63,23.88,31.05-17.91-39.4-17.91-39.4Z"/><path class="cls-2" d="M69.73,151.7,6.44,204.24S-17.44,221,26.74,232.89,74.5,252,74.5,252s4.78-15.53,10.75-13.14L33.91,213.79,75.7,188.71Z"/><path class="cls-4" d="M44.29,111.72a167.64,167.64,0,0,0,16.91-9c-.44-13,1.16-24.82,5.85-31.08,2.63-6,8.16-12,12.49-16.68,10.63-11.57,34.14-18,38.31-12.25,31.54.62,34.86,25.35,34.86,25.35-.16,10.34-10.91,10.66-20.32,10.29.84,7.06-1.41,14.39-7.91,17.64-12.44,6.22-16.18,14.31-10,19.91s17.42,20.53,2.49,24.26-16.79,11.2-12.44,14.31-9.95-5.6-9.95-5.6-2.49,14.93-15.55,11.19a7.83,7.83,0,0,1-3.49-2.47c-3.53,3.88-6.68,6.17-9,6.18-13.59.07-12-15-12-15s-16.12,4.53-11.09,2.7,5.25-9.51-8.12-17.13S36.79,115.44,44.29,111.72Z"/><path class="cls-6" d="M211,150.73l-.22,0,.53,2a53.45,53.45,0,0,0,2.17,8.24L229,219.86a10,10,0,0,0,8.13,7.32l31.61,4.89A10,10,0,0,0,279,226.92l30-56.1a51.24,51.24,0,0,0,2.57-4.79l1-1.91-.16,0A53.1,53.1,0,1,0,211,150.73Z"/><path class="cls-2" d="M270.62,235.92a10.32,10.32,0,0,1-1.66-.13l-33-5.11a10.9,10.9,0,0,1-8.88-8l-16.19-61.57a56,56,0,0,1-2.28-8.66l-.41-2.69a56,56,0,0,1,64.08-62.43l-.15.92a55.07,55.07,0,0,0-62.92,62l.31,2a55,55,0,0,0,2.26,8.58L228,222.44a10,10,0,0,0,8.11,7.32l33,5.11a10,10,0,0,0,10.32-5.15l.82.44A10.9,10.9,0,0,1,270.62,235.92Z"/><rect class="cls-2" x="240.3" y="191.16" width="58.44" height="1.21" transform="translate(-3.23 378.89) rotate(-69.88)"/><rect class="cls-2" x="246.26" y="159.04" width="1.21" height="58.44" transform="translate(-8.03 11.02) rotate(-2.52)"/><path class="cls-6" d="M267.83,263.83l-42.32-6.54a1.21,1.21,0,0,1-1-1.39,1.2,1.2,0,0,1,1.36-1l42.33,6.55a1.21,1.21,0,1,1-.35,2.39Z"/><path class="cls-6" d="M268.92,254.85l-42.33-6.55a1.21,1.21,0,0,1,.36-2.39h0l42.33,6.55a1.21,1.21,0,0,1-.36,2.39Z"/><path class="cls-6" d="M270,245.86l-42.32-6.55a1.2,1.2,0,0,1,.37-2.38l42.32,6.54a1.21,1.21,0,0,1-.37,2.39Z"/><path class="cls-6" d="M245.35,269.07c8.4,1.29,15.93-2.33,16.82-8.1l-30.4-4.71C230.88,262,237,267.77,245.35,269.07Z"/><path class="cls-2" d="M260.57,152.55a7.41,7.41,0,0,1-4.12-2.66c-.27-.31-.53-.64-.79-1a9.65,9.65,0,0,0-3.11-2.89c-2.77-1.29-6,.51-8.86,2.45l-.68-1c3.1-2.12,6.73-4.09,10.05-2.54a10.45,10.45,0,0,1,3.54,3.23c.25.32.5.63.76.94.86,1,2.56,2.6,4.38,2.23a5.78,5.78,0,0,0,2.09-1.11,12.06,12.06,0,0,1,1.49-.94,5.91,5.91,0,0,1,6.48.92,11,11,0,0,1,.88.93,4.37,4.37,0,0,0,1.72,1.42c1,.31,2-.25,3.14-.85a6.23,6.23,0,0,1,3.65-1.09l.13,0c2.37.36,3.47,3,4.09,5l-1.15.37c-.84-2.67-1.87-4-3.21-4.14a5.24,5.24,0,0,0-2.94,1c-1.28.69-2.6,1.41-4.07.94a5.32,5.32,0,0,1-2.27-1.77,10.34,10.34,0,0,0-.78-.84,4.74,4.74,0,0,0-5.14-.72,9.19,9.19,0,0,0-1.32.84,6.86,6.86,0,0,1-2.55,1.3A3.72,3.72,0,0,1,260.57,152.55Z"/></g></g></svg>