<svg xmlns="http://www.w3.org/2000/svg" viewBox="0 0 512.9 493.77"><defs><style>.cls-1{fill:#3f3d56;}.cls-2{fill:#f9a826;}.cls-3{fill:#fff;}.cls-4{fill:#2f2e41;}.cls-5{fill:#9f616a;}.cls-6{opacity:0.1;isolation:isolate;}.cls-7{fill:#d0cde1;}</style></defs><title>Asset 2</title><g id="Layer_2" data-name="Layer 2"><g id="Layer_1-2" data-name="Layer 1"><ellipse class="cls-1" cx="313.14" cy="458.55" rx="199.35" ry="35.22"/><path class="cls-2" d="M187,159.26a102.21,102.21,0,1,0-47.42,38.07A33.06,33.06,0,1,0,187,159.26Z"/><rect class="cls-3" x="41.32" y="81.77" width="121.57" height="9.6"/><rect class="cls-3" x="41.32" y="97.77" width="121.57" height="9.6"/><rect class="cls-3" x="41.32" y="113.76" width="121.57" height="9.6"/><path class="cls-2" d="M374.2,189.56a75.8,75.8,0,1,1,35.17,28.24,24.52,24.52,0,1,1-35.17-28.24Z"/><rect class="cls-3" x="392.09" y="132.09" width="90.17" height="7.12"/><rect class="cls-3" x="392.09" y="143.96" width="90.17" height="7.12"/><rect class="cls-3" x="392.09" y="155.82" width="90.17" height="7.12"/><path class="cls-3" d="M217.64,419.74a53,53,0,1,1,24.59,19.74,17.15,17.15,0,1,1-24.59-19.74Z"/><circle class="cls-2" cx="240.8" cy="388.95" r="6.13"/><circle class="cls-2" cx="261.72" cy="388.95" r="6.13"/><circle class="cls-2" cx="282.64" cy="388.95" r="6.13"/><path class="cls-4" d="M267.86,198.69s27.36.74,31.88,2.39,6.54,13.4,6.54,13.4L285,221.16l-15.89-.9-12,.84,6.68-17.49Z"/><path class="cls-5" d="M269,189.71s1.8,7-2.19,11.88S284,224.06,284,224.06l11.17-1.92s-2.46-21.37.85-26.78S269,189.71,269,189.71Z"/><path class="cls-6" d="M269,189.71s1.8,7-2.19,11.88S284,224.06,284,224.06l11.17-1.92s-2.46-21.37.85-26.78S269,189.71,269,189.71Z"/><polygon class="cls-5" points="343.32 393.01 318.68 425.69 335.5 435.51 358.65 397.64 343.32 393.01"/><path class="cls-4" d="M326,426.25s-9.08-10.55-8.67-8.2-6.46,22.3-.08,24.22,61.13,7.05,61.89.87-16.34-10.51-16.34-10.51-10.15-9.75-12.4-8.76S326,426.25,326,426.25Z"/><polygon class="cls-5" points="337.8 424.23 357.48 457.76 372.34 449.15 352.49 421.7 337.8 424.23"/><path class="cls-4" d="M368.87,344.44,363,352.71s-27.85,38.68-24.89,41.8,15.27,14.93,21.54,12.64,28.52-41.82,28.52-41.82l-5.81-23.21Z"/><path class="cls-4" d="M248.9,336.62s6.24,11.63,22,15.57,32.33,12,32.92,11.9,2.25-1,2.65,1.36,4.74,6.45,4.74,6.45,17.46,59.33,24.13,59.4,20.37-4.71,20.66-6.58-20.42-62.46-20.62-63.64L333,347s27.38,4.37,29.94,5.14,25.27,13.21,25.27,13.21,23.15-16.69,1.49-33.55-58.89-29.22-58.89-29.22l-13.35-3.75-11.64-.7-1.71-6.57-27.57,1.59-28.77,12.21Z"/><circle class="cls-5" cx="285.28" cy="182.08" r="21.47"/><path class="cls-7" d="M265.85,199.34l2.59-.45s4.66,18,19.09,20.93c0,0,7.12-8.53,6.82-10s5.64-9.12,8.8-4.82-.77,80,1.88,81.39,8.35,2.8,3.77,7.82S286,306,282,303.69s-12.28-22.1-15.84-28.75-9.27-29.27-9.27-29.27-7.28-24.77-2.8-30.39S265.85,199.34,265.85,199.34Z"/><path class="cls-4" d="M286.41,292.56A124,124,0,0,1,284,308.25c-1.06,4.2-2.28,6.74-3.68,6.63-3.57-.27-5.2,5-6,11-.9,6.4-.9,13.71-1.39,16.29-.65,3.42-4.8,6-13.1,5.25a58.51,58.51,0,0,1-14.45-3.54c-11.2-4.07-10.87-37.12-9-61.65,1.15-15,2.87-26.87,2.87-26.87s-3.4-10.15-4.49-17.11a21.59,21.59,0,0,1-.32-3.85c.16-6.08,11.26-22.51,18-32.75s15.88-2.72,15.88-2.72L265,208.56s4.94,7.62,5,14.88,11.83,12.49,16.06,16C288.72,241.65,288.66,271.12,286.41,292.56Z"/><path class="cls-4" d="M295.73,202.37s.77.92,4.32.47c4.25-.53,10.09.94,11.45,5,2.49,7.44,9.5,37.7,9.5,37.7s2.93,34.6,4.24,42.25.66,14.41,2,18.42-12.79-7.49-18-6-8.52-17.9-7.87-24.67,1.2-14.13-.6-21.08,1.39-25.36,1.27-29.57S290.58,210.05,295.73,202.37Z"/><path class="cls-5" d="M310.92,309.92s22.74,12.4,24.92,30.05-30.41-17.09-30.41-17.09Z"/><path class="cls-5" d="M323.9,297.4s7,35.11,17.82,33.25-6.06-35.28-6.06-35.28Z"/><path class="cls-4" d="M361.07,450.49s-5.56,6.4-6.93,5.43-4.55,12.28-1.69,14.81,13.86,6.7,14,10.91,29.63,3.38,30.69-1-3.71-14.5-7.05-16.35-15.71-18.83-15.71-18.83S364.68,446.84,361.07,450.49Z"/><path class="cls-6" d="M307.3,331.39c-5.27-3.72-20-4.64-33.06-5.5-5.74-.37-11.15-.73-15.32-1.31-4-.56-7.61-4.22-10.82-9.68-4.85-8.28-8.77-20.68-11.8-32.66,1.15-15,2.87-26.87,2.87-26.87s-3.4-10.15-4.49-17.11a9.32,9.32,0,0,1,2.9-2.62c13.86-5.95,27.1,52.62,28.78,61.81,0,.15.05.29.07.42.82,4.73,9.62,8.77,17.52,10.38,4.86,1,9.38,1.05,11.47-.24,5.47-3.36,22.31,10.1,23.58,10.48S314.88,336.75,307.3,331.39Z"/><path class="cls-4" d="M237.58,232s-10.07,4.76-5.65,27,13.35,60.05,27,61.94,40.8,1.46,48.38,6.82,13-12.52,11.7-12.91-18.11-13.83-23.59-10.47-27.66-2.51-29-10.15S251.67,226,237.58,232Z"/><path class="cls-4" d="M310.19,221.37l11.08,25.7s1.11-.56,2.41,3.46,1.9,7.54,4.17,10.18,12.36,40.24,12.66,42-13.94,7.84-17.12,2.94S310.19,221.37,310.19,221.37Z"/><path class="cls-4" d="M273.06,181.78c.83-.22.95-1.31,1-2.16.14-4.56,2.89-9.24,7.25-10.57a12.27,12.27,0,0,1,5.15-.28,19.54,19.54,0,0,1,7,2.32,11,11,0,0,0,3.54,1.61c.85.13,4.54,1.2,5.39,1.35,1.86.33,3.59,2,5.38,1.38s2.09-2.81,2.13-4.62c.1-4.13-3-9.84-5.79-12.91-2.1-2.33-5.25-3.4-8.33-4a55.16,55.16,0,0,0-10.89-.66c-4.93.08-10,.46-14.44,2.6s-8.19,6.38-8.4,11.31c0,1,.06,2.05,0,3.08-.21,2.49-1.54,4.75-2.16,7.18a13.17,13.17,0,0,0,1.83,10.5c1.65,2.43,4.25,4.62,4.15,7.56l3.58-3.71a2.94,2.94,0,0,0,.87-3.59L269,183.27a4.38,4.38,0,0,1-.11-2.75C270.22,177.17,271.69,182.15,273.06,181.78Z"/><path class="cls-1" d="M435.68,428.84c-.15-.24-3.64-6.08-4.86-18.2-1.11-11.13-.39-29.87,9.33-56,18.42-49.54-4.24-89.51-4.48-89.91l1.12-.65c.06.1,5.91,10.29,9.36,26.52a115.6,115.6,0,0,1-4.79,64.49c-18.39,49.46-4.72,72.88-4.58,73.11Z"/><circle class="cls-2" cx="428.48" cy="253.39" r="8.4"/><circle class="cls-1" cx="454.97" cy="284.4" r="8.4"/><circle class="cls-2" cx="436.88" cy="305.08" r="8.4"/><circle class="cls-2" cx="458.85" cy="322.53" r="8.4"/><circle class="cls-1" cx="430.42" cy="349.67" r="8.4"/><path class="cls-1" d="M440.76,429.15s-8.4-20.68,16.8-36.19Z"/><path class="cls-1" d="M430.43,428.77s-3.83-22-33.42-21.8Z"/></g></g></svg>